<svg version="1.1" viewBox="0.0 0.0 572.4593175853018 215.40944881889763" fill="none" stroke="none" stroke-linecap="square" stroke-miterlimit="10" xmlns:xlink="http://www.w3.org/1999/xlink" xmlns="http://www.w3.org/2000/svg"><clipPath id="p.0"><path d="m0 0l572.4593 0l0 215.40945l-572.4593 0l0 -215.40945z" clip-rule="nonzero"/></clipPath><g clip-path="url(#p.0)"><path fill="#000000" fill-opacity="0.0" d="m0 0l572.4593 0l0 215.40945l-572.4593 0z" fill-rule="evenodd"/><path fill="#000000" fill-opacity="0.0" d="m106.23097 7.671916l570.6772 0l0 53.322834l-570.6772 0z" fill-rule="evenodd"/><path fill="#000000" d="m119.02785 43.551914l2.0 0l2.28125 -9.0625l0.375 -2.296875l0.375 2.296875l2.3125 9.0625l2.0 0l3.140625 -14.796875l-2.234375 0l-1.640625 9.4375l-0.375 2.328125l-0.390625 -2.328125l-2.359375 -9.4375l-1.625 0l-2.359375 9.4375l-0.375 2.125l-0.296875 -2.125l-1.71875 -9.4375l-2.25 0l3.140625 14.796875zm23.583984 0l0 -19.90625l-0.203125 0l-7.53125 2.890625l0 2.3125l5.203125 -1.984375l0 16.6875l2.53125 0zm26.824219 0l2.0 0l2.28125 -9.0625l0.375 -2.296875l0.375 2.296875l2.3125 9.0625l2.0 0l3.140625 -14.796875l-2.234375 0l-1.640625 9.4375l-0.375 2.328125l-0.390625 -2.328125l-2.359375 -9.4375l-1.625 0l-2.359375 9.4375l-0.375 2.125l-0.296875 -2.125l-1.71875 -9.4375l-2.25 0l3.140625 14.796875zm27.59961 0l0 -2.0625l-10.0 0l5.34375 -5.796875q0.75 -0.828125 1.421875 -1.65625q0.6875 -0.828125 1.203125 -1.671875q0.515625 -0.84375 0.8125 -1.703125q0.296875 -0.875 0.296875 -1.765625q0 -1.1875 -0.421875 -2.203125q-0.40625 -1.015625 -1.1875 -1.75q-0.78125 -0.734375 -1.90625 -1.15625q-1.125 -0.421875 -2.546875 -0.421875q-1.53125 0 -2.734375 0.5q-1.1875 0.484375 -2.0 1.328125q-0.84375 0.828125 -1.28125 1.953125q-0.4375 1.109375 -0.4375 2.359375l2.546875 0q0 -0.921875 0.234375 -1.671875q0.25 -0.75 0.734375 -1.296875q0.484375 -0.515625 1.21875 -0.796875q0.734375 -0.296875 1.71875 -0.296875q0.828125 0 1.46875 0.28125q0.65625 0.28125 1.125 0.765625q0.453125 0.484375 0.6875 1.140625q0.234375 0.640625 0.234375 1.375q0 0.59375 -0.15625 1.171875q-0.140625 0.5625 -0.5 1.1875q-0.34375 0.640625 -0.9375 1.40625q-0.59375 0.75 -1.46875 1.71875l-6.515625 7.25l0 1.8125l13.046875 0zm22.808594 0l2.0 0l2.28125 -9.0625l0.375 -2.296875l0.375 2.296875l2.3125 9.0625l2.0 0l3.140625 -14.796875l-2.234375 0l-1.640625 9.4375l-0.375 2.328125l-0.390625 -2.328125l-2.359375 -9.4375l-1.625 0l-2.359375 9.4375l-0.375 2.125l-0.296875 -2.125l-1.71875 -9.4375l-2.25 0l3.140625 14.796875zm18.333984 -11.171875l0 2.046875l1.8125 0q0.9375 0 1.71875 0.21875q0.796875 0.21875 1.359375 0.671875q0.546875 0.453125 0.84375 1.140625q0.3125 0.671875 0.3125 1.59375q0 0.953125 -0.265625 1.640625q-0.265625 0.6875 -0.765625 1.15625q-0.484375 0.453125 -1.1875 0.6875q-0.6875 0.21875 -1.546875 0.21875q-0.875 0 -1.578125 -0.234375q-0.703125 -0.25 -1.1875 -0.703125q-0.5 -0.453125 -0.765625 -1.09375q-0.265625 -0.640625 -0.265625 -1.421875l-2.53125 0q0 1.3125 0.5 2.34375q0.5 1.015625 1.34375 1.734375q0.859375 0.703125 2.015625 1.078125q1.15625 0.375 2.46875 0.375q1.328125 0 2.484375 -0.390625q1.15625 -0.390625 2.0 -1.15625q0.859375 -0.734375 1.328125 -1.8125q0.484375 -1.078125 0.484375 -2.46875q0 -0.6875 -0.15625 -1.375q-0.15625 -0.703125 -0.546875 -1.34375q-0.390625 -0.625 -1.046875 -1.125q-0.640625 -0.515625 -1.609375 -0.828125q0.796875 -0.34375 1.375 -0.84375q0.59375 -0.515625 0.953125 -1.109375q0.375 -0.578125 0.546875 -1.1875q0.1875 -0.609375 0.1875 -1.1875q0 -1.375 -0.4375 -2.421875q-0.4375 -1.0625 -1.234375 -1.78125q-0.796875 -0.703125 -1.90625 -1.0625q-1.109375 -0.375 -2.4375 -0.375q-1.390625 0 -2.515625 0.4375q-1.125 0.4375 -1.9375 1.171875q-0.796875 0.75 -1.25 1.765625q-0.4375 1.0 -0.4375 2.125l2.546875 0q0 -0.78125 0.25 -1.40625q0.265625 -0.625 0.734375 -1.078125q0.46875 -0.453125 1.125 -0.6875q0.671875 -0.25 1.484375 -0.25q0.828125 0 1.46875 0.21875q0.65625 0.21875 1.09375 0.640625q0.453125 0.4375 0.6875 1.109375q0.234375 0.65625 0.234375 1.53125q0 0.765625 -0.265625 1.390625q-0.25 0.625 -0.75 1.078125q-0.5 0.453125 -1.234375 0.71875q-0.734375 0.25 -1.6875 0.25l-1.8125 0zm32.074203 11.171875l2.0 0l2.28125 -9.0625l0.375 -2.296875l0.375 2.296875l2.3125 9.0625l2.0 0l3.140625 -14.796875l-2.234375 0l-1.640625 9.4375l-0.375 2.328125l-0.390625 -2.328125l-2.359375 -9.4375l-1.625 0l-2.359375 9.4375l-0.375 2.125l-0.296875 -2.125l-1.71875 -9.4375l-2.25 0l3.140625 14.796875zm25.646484 -6.6875l0 -13.21875l-2.703125 0l-8.90625 13.796875l0 1.484375l9.078125 0l0 4.625l2.53125 0l0 -4.625l2.765625 0l0 -2.0625l-2.765625 0zm-8.8125 0l5.859375 -9.09375l0.421875 -0.765625l0 9.859375l-6.28125 0zm33.57422 6.6875l2.0 0l2.28125 -9.0625l0.375 -2.296875l0.375 2.296875l2.3125 9.0625l2.0 0l3.140625 -14.796875l-2.234375 0l-1.640625 9.4375l-0.375 2.328125l-0.390625 -2.328125l-2.359375 -9.4375l-1.625 0l-2.359375 9.4375l-0.375 2.125l-0.296875 -2.125l-1.71875 -9.4375l-2.25 0l3.140625 14.796875zm16.28711 -9.984375l2.03125 0.515625q0.328125 -0.296875 0.65625 -0.53125q0.328125 -0.234375 0.6875 -0.390625q0.375 -0.171875 0.828125 -0.25q0.453125 -0.09375 1.09375 -0.09375q0.953125 0 1.6875 0.34375q0.734375 0.34375 1.25 0.921875q0.5 0.609375 0.765625 1.421875q0.265625 0.796875 0.265625 1.734375q0 1.015625 -0.234375 1.859375q-0.234375 0.828125 -0.703125 1.421875q-0.484375 0.59375 -1.1875 0.921875q-0.6875 0.3125 -1.59375 0.3125q-1.59375 0 -2.609375 -0.875q-1.015625 -0.875 -1.25 -2.5625l-2.40625 0q0.125 1.375 0.671875 2.421875q0.546875 1.03125 1.390625 1.71875q0.828125 0.6875 1.90625 1.03125q1.078125 0.34375 2.296875 0.34375q1.59375 0 2.765625 -0.5q1.171875 -0.5 1.953125 -1.390625q0.765625 -0.875 1.140625 -2.09375q0.390625 -1.21875 0.390625 -2.640625q0 -1.5 -0.40625 -2.734375q-0.40625 -1.234375 -1.171875 -2.109375q-0.765625 -0.859375 -1.859375 -1.328125q-1.09375 -0.484375 -2.484375 -0.484375q-1.078125 0 -1.90625 0.265625q-0.8125 0.25 -1.390625 0.59375l0.546875 -5.3125l8.09375 0l0 -2.453125l-10.21875 0l-1.0 9.921875zm34.121094 9.984375l2.0 0l2.28125 -9.0625l0.375 -2.296875l0.375 2.296875l2.3125 9.0625l2.0 0l3.140625 -14.796875l-2.234375 0l-1.640625 9.4375l-0.375 2.328125l-0.390625 -2.328125l-2.359375 -9.4375l-1.625 0l-2.359375 9.4375l-0.375 2.125l-0.296875 -2.125l-1.71875 -9.4375l-2.25 0l3.140625 14.796875zm24.708984 -19.921875l-0.21875 0q-2.125 0 -3.8125 0.59375q-1.6875 0.59375 -2.859375 1.765625q-1.703125 1.71875 -2.296875 4.125q-0.59375 2.40625 -0.59375 4.890625l0 1.1875q0 1.453125 0.4375 2.90625q0.4375 1.4375 1.328125 2.515625q0.796875 0.984375 1.953125 1.609375q1.171875 0.609375 2.703125 0.609375q1.515625 0 2.671875 -0.53125q1.15625 -0.546875 1.9375 -1.46875q0.78125 -0.921875 1.15625 -2.140625q0.390625 -1.234375 0.390625 -2.640625q0 -1.21875 -0.328125 -2.390625q-0.328125 -1.171875 -1.015625 -2.109375q-0.703125 -0.921875 -1.78125 -1.484375q-1.078125 -0.578125 -2.5625 -0.578125q-0.6875 0 -1.3125 0.15625q-0.625 0.15625 -1.15625 0.421875q-0.546875 0.28125 -1.015625 0.640625q-0.453125 0.359375 -0.8125 0.78125q0.078125 -1.3125 0.515625 -2.546875q0.453125 -1.25 1.3125 -2.15625q0.828125 -0.859375 2.078125 -1.375q1.265625 -0.515625 3.0625 -0.515625l0.21875 0l0 -2.265625zm-3.3125 8.96875q0.921875 0 1.59375 0.390625q0.6875 0.375 1.140625 1.015625q0.453125 0.640625 0.671875 1.46875q0.21875 0.828125 0.21875 1.703125q0 0.984375 -0.234375 1.828125q-0.234375 0.84375 -0.703125 1.4375q-0.484375 0.609375 -1.171875 0.953125q-0.671875 0.34375 -1.5625 0.34375q-0.765625 0 -1.46875 -0.359375q-0.6875 -0.375 -1.234375 -1.0625q-0.53125 -0.703125 -0.84375 -1.71875q-0.3125 -1.015625 -0.3125 -2.328125l0 -0.859375q0.234375 -0.625 0.625 -1.140625q0.40625 -0.515625 0.921875 -0.890625q0.515625 -0.375 1.109375 -0.578125q0.609375 -0.203125 1.25 -0.203125zm29.011719 10.953125l2.0 0l2.28125 -9.0625l0.375 -2.296875l0.375 2.296875l2.3125 9.0625l2.0 0l3.140625 -14.796875l-2.234375 0l-1.640625 9.4375l-0.375 2.328125l-0.390625 -2.328125l-2.359375 -9.4375l-1.625 0l-2.359375 9.4375l-0.375 2.125l-0.296875 -2.125l-1.71875 -9.4375l-2.25 0l3.140625 14.796875zm27.990234 -18.484375l0 -1.421875l-13.453125 0l0 2.21875l10.78125 0l-8.21875 17.6875l2.640625 0l8.25 -18.484375zm22.417969 18.484375l2.0 0l2.28125 -9.0625l0.375 -2.296875l0.375 2.296875l2.3125 9.0625l2.0 0l3.140625 -14.796875l-2.234375 0l-1.640625 9.4375l-0.375 2.328125l-0.390625 -2.328125l-2.359375 -9.4375l-1.625 0l-2.359375 9.4375l-0.375 2.125l-0.296875 -2.125l-1.71875 -9.4375l-2.25 0l3.140625 14.796875zm27.63086 -14.71875q0 -1.296875 -0.453125 -2.3125q-0.4375 -1.015625 -1.234375 -1.71875q-0.796875 -0.6875 -1.875 -1.0625q-1.078125 -0.375 -2.34375 -0.375q-1.265625 0 -2.34375 0.375q-1.0625 0.375 -1.828125 1.0625q-0.78125 0.703125 -1.21875 1.71875q-0.4375 1.015625 -0.4375 2.3125q0 0.75 0.203125 1.421875q0.203125 0.65625 0.578125 1.21875q0.359375 0.578125 0.890625 1.046875q0.53125 0.453125 1.1875 0.78125q-0.765625 0.328125 -1.375 0.828125q-0.609375 0.484375 -1.046875 1.09375q-0.4375 0.625 -0.671875 1.375q-0.234375 0.75 -0.234375 1.578125q0 1.375 0.484375 2.421875q0.5 1.046875 1.359375 1.765625q0.84375 0.71875 2.0 1.09375q1.15625 0.375 2.5 0.375q1.3125 0 2.453125 -0.375q1.15625 -0.390625 2.015625 -1.109375q0.84375 -0.71875 1.34375 -1.765625q0.5 -1.046875 0.5 -2.40625q0 -0.828125 -0.234375 -1.5625q-0.234375 -0.75 -0.671875 -1.375q-0.453125 -0.625 -1.078125 -1.109375q-0.625 -0.484375 -1.390625 -0.8125q0.4375 -0.21875 0.8125 -0.484375q0.390625 -0.28125 0.703125 -0.609375q0.65625 -0.65625 1.015625 -1.515625q0.375 -0.875 0.390625 -1.875zm-2.078125 9.296875q0 0.859375 -0.28125 1.53125q-0.28125 0.671875 -0.765625 1.140625q-0.5 0.46875 -1.203125 0.71875q-0.703125 0.234375 -1.53125 0.234375q-0.875 0 -1.578125 -0.234375q-0.703125 -0.25 -1.203125 -0.71875q-0.484375 -0.46875 -0.75 -1.140625q-0.265625 -0.671875 -0.265625 -1.53125q0 -0.84375 0.265625 -1.53125q0.265625 -0.703125 0.75 -1.203125q0.5 -0.5 1.1875 -0.765625q0.703125 -0.28125 1.5625 -0.28125q0.84375 0 1.546875 0.28125q0.703125 0.265625 1.203125 0.765625q0.5 0.5 0.78125 1.203125q0.28125 0.6875 0.28125 1.53125zm-0.453125 -9.25q0 0.765625 -0.25 1.40625q-0.25 0.625 -0.6875 1.0625q-0.453125 0.4375 -1.078125 0.6875q-0.609375 0.234375 -1.328125 0.234375q-0.734375 0 -1.34375 -0.234375q-0.609375 -0.25 -1.046875 -0.6875q-0.453125 -0.4375 -0.703125 -1.0625q-0.234375 -0.625 -0.234375 -1.40625q0 -0.78125 0.234375 -1.40625q0.25 -0.640625 0.6875 -1.09375q0.4375 -0.453125 1.03125 -0.6875q0.609375 -0.25 1.34375 -0.25q0.75 0 1.359375 0.265625q0.609375 0.25 1.0625 0.703125q0.4375 0.453125 0.6875 1.09375q0.265625 0.625 0.265625 1.375zm25.308594 14.671875l2.0 0l2.28125 -9.0625l0.375 -2.296875l0.375 2.296875l2.3125 9.0625l2.0 0l3.140625 -14.796875l-2.234375 0l-1.640625 9.4375l-0.375 2.328125l-0.390625 -2.328125l-2.359375 -9.4375l-1.625 0l-2.359375 9.4375l-0.375 2.125l-0.296875 -2.125l-1.71875 -9.4375l-2.25 0l3.140625 14.796875zm18.09961 -2.25l-0.25 0l0 2.265625l0.25 0q2.46875 0 4.1875 -0.671875q1.71875 -0.6875 2.6875 -1.78125q1.609375 -1.796875 2.09375 -4.125q0.5 -2.34375 0.5 -4.65625l0 -0.90625q0 -1.625 -0.453125 -3.25q-0.453125 -1.640625 -1.359375 -2.734375q-0.765625 -0.9375 -1.890625 -1.5q-1.125 -0.578125 -2.65625 -0.578125q-1.53125 0 -2.6875 0.5625q-1.15625 0.546875 -1.921875 1.484375q-0.78125 0.9375 -1.171875 2.1875q-0.390625 1.25 -0.390625 2.65625q0 1.203125 0.328125 2.40625q0.328125 1.1875 1.03125 2.125q0.703125 0.9375 1.765625 1.53125q1.078125 0.578125 2.5625 0.578125q0.765625 0 1.40625 -0.15625q0.65625 -0.15625 1.1875 -0.4375q0.53125 -0.265625 0.953125 -0.625q0.421875 -0.375 0.75 -0.78125l0 0.03125q-0.0625 1.25 -0.390625 2.4375q-0.328125 1.171875 -1.28125 2.1875q-0.765625 0.84375 -2.046875 1.296875q-1.28125 0.453125 -3.203125 0.453125zm3.03125 -6.5q-0.921875 0 -1.59375 -0.40625q-0.671875 -0.40625 -1.109375 -1.0625q-0.453125 -0.65625 -0.671875 -1.484375q-0.21875 -0.84375 -0.21875 -1.71875q0 -0.984375 0.234375 -1.84375q0.25 -0.859375 0.734375 -1.484375q0.46875 -0.609375 1.140625 -0.96875q0.6875 -0.359375 1.578125 -0.359375q0.78125 0 1.46875 0.390625q0.6875 0.375 1.21875 1.09375q0.53125 0.71875 0.828125 1.765625q0.3125 1.03125 0.3125 2.359375l0 0.8125q-0.234375 0.65625 -0.640625 1.1875q-0.40625 0.515625 -0.90625 0.890625q-0.515625 0.40625 -1.125 0.625q-0.609375 0.203125 -1.25 0.203125z" fill-rule="nonzero"/><path fill="#000000" fill-opacity="0.0" d="m7.0813646 16.03412l88.0 0l0 36.598427l-88.0 0z" fill-rule="evenodd"/><path fill="#000000" d="m26.950384 42.95412l-3.703125 -13.578127l1.765625 0l2.15625 8.328127q0.171875 0.671875 0.328125 1.359375q0.15625 0.6875 0.296875 1.390625q0.15625 0.703125 0.28125 1.453125l-0.21875 0q0.140625 -0.75 0.28125 -1.453125q0.15625 -0.703125 0.3125 -1.390625q0.171875 -0.6875 0.34375 -1.359375l2.1875 -8.328127l1.9687481 0l2.1875 8.328127q0.171875 0.671875 0.328125 1.359375q0.171875 0.6875 0.3125 1.390625q0.15625 0.703125 0.296875 1.453125l-0.234375 0q0.140625 -0.75 0.28125 -1.453125q0.140625 -0.703125 0.296875 -1.390625q0.171875 -0.6875 0.34375 -1.359375l2.140625 -8.328127l1.78125 0l-3.71875 13.578127l-2.015625 0l-2.328125 -8.59375q-0.21875 -0.84375 -0.4375 -1.828125q-0.2031231 -1.0000019 -0.4062481 -2.281252l0.3593731 0q-0.1874981 1.21875 -0.3906231 2.187502q-0.1875 0.953125 -0.453125 1.921875l-2.328125 8.59375l-2.015625 0zm18.841291 0.21875q-1.375 0 -2.421875 -0.65625q-1.046875 -0.65625 -1.625 -1.84375q-0.578125 -1.1875 -0.578125 -2.75q0 -1.59375 0.578125 -2.78125q0.578125 -1.1875 1.625 -1.84375q1.046875 -0.65625 2.421875 -0.65625q1.40625 0 2.453125 0.65625q1.046875 0.65625 1.625 1.84375q0.578125 1.1875 0.578125 2.78125q0 1.5625 -0.578125 2.75q-0.578125 1.1875 -1.625 1.84375q-1.046875 0.65625 -2.453125 0.65625zm0 -1.46875q1.03125 0 1.6875 -0.53125q0.671875 -0.53125 0.984375 -1.390625q0.328125 -0.859375 0.328125 -1.859375q0 -1.015625 -0.328125 -1.875q-0.3125 -0.875 -0.984375 -1.40625q-0.65625 -0.53125 -1.6875 -0.53125q-1.015625 0 -1.671875 0.53125q-0.65625 0.53125 -0.984375 1.40625q-0.3125 0.859375 -0.3125 1.875q0 1.0 0.3125 1.859375q0.328125 0.859375 0.984375 1.390625q0.65625 0.53125 1.671875 0.53125zm7.0458374 1.25l0 -10.1875l1.59375 0l0 1.5625l0.109375 0q0.28125 -0.765625 1.0 -1.234375q0.71875 -0.46875 1.640625 -0.46875q0.171875 0 0.421875 0.015625q0.25 0 0.40625 0.015625l0 1.640625q-0.078125 -0.015625 -0.375 -0.046875q-0.28125 -0.046875 -0.609375 -0.046875q-0.734375 0 -1.3125 0.3125q-0.578125 0.296875 -0.90625 0.84375q-0.328125 0.53125 -0.328125 1.21875l0 6.375l-1.640625 0zm10.5260315 0.21875q-1.265625 0 -2.234375 -0.640625q-0.96875 -0.65625 -1.515625 -1.828125q-0.546875 -1.1875 -0.546875 -2.8125q0 -1.609375 0.546875 -2.78125q0.546875 -1.1875 1.515625 -1.828125q0.984375 -0.640625 2.25 -0.640625q1.0000038 0 1.5781288 0.328125q0.578125 0.328125 0.890625 0.75q0.3125 0.40625 0.484375 0.6875l0.125 0l0 -5.031252l1.640625 0l0 13.578127l-1.578125 0l0 -1.578125l-0.1875 0q-0.171875 0.28125 -0.5 0.703125q-0.3125 0.421875 -0.90625 0.765625q-0.578125 0.328125 -1.5625038 0.328125zm0.25 -1.46875q0.9375038 0 1.5625038 -0.484375q0.640625 -0.484375 0.96875 -1.34375q0.328125 -0.875 0.328125 -2.0q0 -1.140625 -0.328125 -1.96875q-0.3125 -0.84375 -0.953125 -1.3125q-0.640625 -0.484375 -1.5781288 -0.484375q-0.96875 0 -1.609375 0.5q-0.640625 0.5 -0.96875 1.359375q-0.3125 0.84375 -0.3125 1.90625q0 1.0625 0.328125 1.9375q0.328125 0.859375 0.96875 1.375q0.65625 0.515625 1.59375 0.515625zm10.829563 1.46875q-1.046875 0 -1.875 -0.296875q-0.8125 -0.3125 -1.34375 -0.90625q-0.515625 -0.609375 -0.703125 -1.484375l1.5625 -0.375q0.21875 0.84375 0.8125 1.234375q0.609375 0.390625 1.515625 0.390625q1.078125 0 1.703125 -0.453125q0.640625 -0.453125 0.640625 -1.09375q0 -0.515625 -0.375 -0.859375q-0.359375 -0.359375 -1.125 -0.53125l-1.6875 -0.40625q-1.390625 -0.328125 -2.0625 -1.015625q-0.671875 -0.6875 -0.671875 -1.765625q0 -0.875 0.484375 -1.546875q0.5 -0.671875 1.34375 -1.046875q0.859375 -0.375 1.9375 -0.375q1.046875 0 1.78125 0.3125q0.734375 0.3125 1.1875 0.875q0.46875 0.546875 0.703125 1.265625l-1.5 0.375q-0.203125 -0.546875 -0.6875 -0.984375q-0.484375 -0.453125 -1.46875 -0.453125q-0.921875 0 -1.53125 0.421875q-0.59375 0.421875 -0.59375 1.0625q0 0.5625 0.40625 0.90625q0.40625 0.34375 1.3125 0.546875l1.53125 0.359375q1.390625 0.328125 2.046875 1.015625q0.671875 0.6875 0.671875 1.734375q0 0.890625 -0.515625 1.59375q-0.5 0.703125 -1.40625 1.109375q-0.90625 0.390625 -2.09375 0.390625z" fill-rule="nonzero"/><path fill="#000000" fill-opacity="0.0" d="m7.0813646 60.99475l88.0 0l0 36.598427l-88.0 0z" fill-rule="evenodd"/><path fill="#000000" d="m22.801191 74.18537l0 -1.09375l7.328125 0l0 1.09375l-3.046875 0l0 8.609375l-1.234375 0l0 -8.609375l-3.046875 0zm10.479704 8.703125q-0.734375 0 -1.2968731 -0.296875q-0.5625 -0.3125 -0.875 -0.921875q-0.296875 -0.609375 -0.296875 -1.53125l0 -4.625l1.171875 0l0 4.53125q0 0.84375 0.4374981 1.3125q0.4375 0.46875 1.203125 0.46875q0.515625 0 0.921875 -0.21875q0.421875 -0.234375 0.65625 -0.671875q0.25 -0.4375 0.25 -1.0625l0 -4.359375l1.1875 0l0 7.28125l-1.140625 0l0 -1.765625l0.15625 0q-0.34375 1.03125 -0.96875 1.453125q-0.609375 0.40625 -1.40625 0.40625zm5.4122925 -0.09375l0 -7.28125l1.140625 0l0 1.625l-0.09375 0q0.15625 -0.578125 0.46875 -0.96875q0.328125 -0.390625 0.75 -0.578125q0.4375 -0.203125 0.90625 -0.203125q0.796875 0 1.28125 0.484375q0.5 0.484375 0.640625 1.28125l-0.15625 0q0.140625 -0.546875 0.484375 -0.9375q0.34375 -0.390625 0.828125 -0.609375q0.5 -0.21875 1.078125 -0.21875q0.625 0 1.140625 0.28125q0.53125 0.265625 0.828125 0.828125q0.3125 0.546875 0.3125 1.390625l0 4.90625l-1.171875 0l0 -4.875q0 -0.78125 -0.4375 -1.125q-0.4375 -0.34375 -1.03125 -0.34375q-0.484375 0 -0.84375 0.21875q-0.34375 0.203125 -0.546875 0.5625q-0.1875 0.34375 -0.1875 0.8125l0 4.75l-1.171875 0l0 -4.984375q0 -0.609375 -0.40625 -0.984375q-0.40625 -0.375 -1.015625 -0.375q-0.421875 0 -0.796875 0.203125q-0.375 0.203125 -0.609375 0.59375q-0.21875 0.390625 -0.21875 0.96875l0 4.578125l-1.171875 0zm15.050125 0.15625q-0.6875 0 -1.109375 -0.234375q-0.421875 -0.234375 -0.65625 -0.53125q-0.21875 -0.3125 -0.34375 -0.515625l-0.140625 0l0 1.125l-1.125 0l0 -9.703125l1.171875 0l0 3.59375l0.09375 0q0.125 -0.203125 0.34375 -0.484375q0.21875 -0.296875 0.625 -0.53125q0.421875 -0.234375 1.140625 -0.234375q0.90625 0 1.59375 0.453125q0.703125 0.453125 1.09375 1.296875q0.390625 0.84375 0.390625 1.984375q0 1.171875 -0.390625 2.015625q-0.390625 0.84375 -1.09375 1.3125q-0.6875 0.453125 -1.59375 0.453125zm-0.171875 -1.046875q0.671875 0 1.125 -0.359375q0.46875 -0.375 0.703125 -1.0q0.234375 -0.625 0.234375 -1.375q0 -0.765625 -0.234375 -1.375q-0.21875 -0.609375 -0.6875 -0.953125q-0.453125 -0.359375 -1.140625 -0.359375q-0.671875 0 -1.125 0.34375q-0.453125 0.328125 -0.6875 0.9375q-0.234375 0.59375 -0.234375 1.40625q0 0.796875 0.234375 1.421875q0.234375 0.609375 0.6875 0.96875q0.46875 0.34375 1.125 0.34375zm6.1296234 -8.8125l0 9.703125l-1.171875 0l0 -9.703125l1.171875 0zm2.0560303 9.703125l0 -7.28125l1.171875 0l0 7.28125l-1.171875 0zm0.59375 -8.46875q-0.328125 0 -0.578125 -0.21875q-0.234375 -0.234375 -0.234375 -0.546875q0 -0.328125 0.234375 -0.546875q0.25 -0.234375 0.578125 -0.234375q0.34375 0 0.578125 0.234375q0.234375 0.21875 0.234375 0.546875q0 0.3125 -0.234375 0.546875q-0.234375 0.21875 -0.578125 0.21875zm3.806034 4.109375l0 4.359375l-1.171875 0l0 -7.28125l1.125 0l0 1.765625l-0.15625 0q0.328125 -1.0 0.9375 -1.421875q0.625 -0.421875 1.453125 -0.421875q0.734375 0 1.28125 0.296875q0.5625 0.296875 0.859375 0.90625q0.3125 0.609375 0.3125 1.53125l0 4.625l-1.171875 0l0 -4.515625q0 -0.84375 -0.4375 -1.3125q-0.4375 -0.484375 -1.203125 -0.484375q-0.515625 0 -0.9375 0.234375q-0.40625 0.21875 -0.65625 0.65625q-0.234375 0.4375 -0.234375 1.0625zm9.640152 7.234375q-0.796875 0 -1.390625 -0.203125q-0.59375 -0.203125 -0.984375 -0.546875q-0.390625 -0.328125 -0.609375 -0.734375l0.953125 -0.609375q0.15625 0.203125 0.375 0.453125q0.234375 0.265625 0.625 0.4375q0.40625 0.1875 1.03125 0.1875q0.875 0 1.4375 -0.421875q0.5625 -0.421875 0.5625 -1.3125l0 -1.453125l-0.109375 0q-0.125 0.203125 -0.34375 0.5q-0.21875 0.28125 -0.640625 0.5q-0.421875 0.21875 -1.125 0.21875q-0.875 0 -1.578125 -0.40625q-0.6875 -0.421875 -1.09375 -1.21875q-0.40625 -0.796875 -0.40625 -1.9375q0 -1.125 0.390625 -1.953125q0.40625 -0.828125 1.109375 -1.28125q0.703125 -0.453125 1.609375 -0.453125q0.703125 0 1.109375 0.234375q0.421875 0.21875 0.640625 0.515625q0.234375 0.296875 0.359375 0.5l0.109375 0l0 -1.171875l1.140625 0l0 7.46875q0 0.9375 -0.421875 1.53125q-0.421875 0.59375 -1.140625 0.875q-0.71875 0.28125 -1.609375 0.28125zm-0.03125 -4.03125q0.671875 0 1.125 -0.296875q0.453125 -0.3125 0.6875 -0.875q0.234375 -0.578125 0.234375 -1.375q0 -0.765625 -0.234375 -1.359375q-0.21875 -0.59375 -0.6875 -0.921875q-0.453125 -0.328125 -1.125 -0.328125q-0.6875 0 -1.15625 0.359375q-0.453125 0.34375 -0.6875 0.9375q-0.21875 0.59375 -0.21875 1.3125q0 0.75 0.234375 1.328125q0.234375 0.578125 0.6875 0.90625q0.46875 0.3125 1.140625 0.3125z" fill-rule="nonzero"/><path fill="#000000" d="m25.021147 98.79475l-2.640625 -9.703125l1.25 0l1.546875 5.953125q0.125 0.46875 0.234375 0.96875q0.109375 0.484375 0.203125 1.0q0.109375 0.5 0.203125 1.03125l-0.15625 0q0.109375 -0.53125 0.203125 -1.03125q0.109375 -0.515625 0.21875 -1.0q0.125 -0.5 0.25 -0.96875l1.5625 -5.953125l1.40625 0l1.5625 5.953125q0.125 0.46875 0.234375 0.96875q0.125 0.484375 0.234375 1.0q0.109375 0.5 0.203125 1.03125l-0.171875 0q0.109375 -0.53125 0.203125 -1.03125q0.109375 -0.515625 0.21875 -1.0q0.125 -0.5 0.2343731 -0.96875l1.53125 -5.953125l1.28125 0l-2.65625 9.703125l-1.4374981 0l-1.671875 -6.140625q-0.15625 -0.59375 -0.3125 -1.296875q-0.140625 -0.71875 -0.28125 -1.640625l0.25 0q-0.140625 0.875 -0.28125 1.5625q-0.125 0.6875 -0.328125 1.375l-1.65625 6.140625l-1.4375 0zm11.179762 0l0 -7.28125l1.171875 0l0 7.28125l-1.171875 0zm0.59375 -8.46875q-0.328125 0 -0.578125 -0.21875q-0.234375 -0.234375 -0.234375 -0.546875q0 -0.328125 0.234375 -0.546875q0.25 -0.234375 0.578125 -0.234375q0.34375 0 0.578125 0.234375q0.234375 0.21875 0.234375 0.546875q0 0.3125 -0.234375 0.546875q-0.234375 0.21875 -0.578125 0.21875zm3.8060303 4.109375l0 4.359375l-1.171875 0l0 -7.28125l1.125 0l0 1.765625l-0.15625 0q0.328125 -1.0 0.9375 -1.421875q0.625 -0.421875 1.453125 -0.421875q0.734375 0 1.28125 0.296875q0.5625 0.296875 0.859375 0.90625q0.3125 0.609375 0.3125 1.53125l0 4.625l-1.171875 0l0 -4.515625q0 -0.84375 -0.4375 -1.3125q-0.4375 -0.484375 -1.203125 -0.484375q-0.515625 0 -0.9375 0.234375q-0.40625 0.21875 -0.65625 0.65625q-0.234375 0.4375 -0.234375 1.0625zm9.421402 4.515625q-0.90625 0 -1.609375 -0.453125q-0.6875 -0.46875 -1.078125 -1.3125q-0.390625 -0.84375 -0.390625 -2.015625q0 -1.140625 0.390625 -1.984375q0.40625 -0.84375 1.09375 -1.296875q0.703125 -0.453125 1.609375 -0.453125q0.703125 0 1.109375 0.234375q0.421875 0.234375 0.640625 0.53125q0.234375 0.28125 0.359375 0.484375l0.09375 0l0 -3.59375l1.15625 0l0 9.703125l-1.125 0l0 -1.125l-0.125 0q-0.125 0.203125 -0.359375 0.515625q-0.21875 0.296875 -0.640625 0.53125q-0.421875 0.234375 -1.125 0.234375zm0.1875 -1.046875q0.65625 0 1.109375 -0.34375q0.453125 -0.359375 0.6875 -0.96875q0.234375 -0.625 0.234375 -1.421875q0 -0.8125 -0.234375 -1.40625q-0.21875 -0.609375 -0.6875 -0.9375q-0.453125 -0.34375 -1.109375 -0.34375q-0.703125 0 -1.15625 0.359375q-0.453125 0.34375 -0.6875 0.953125q-0.21875 0.609375 -0.21875 1.375q0 0.75 0.21875 1.375q0.234375 0.625 0.6875 1.0q0.46875 0.359375 1.15625 0.359375zm8.207748 1.046875q-0.984375 0 -1.734375 -0.46875q-0.734375 -0.46875 -1.15625 -1.3125q-0.421875 -0.84375 -0.421875 -1.96875q0 -1.140625 0.421875 -1.984375q0.421875 -0.859375 1.15625 -1.3125q0.75 -0.46875 1.734375 -0.46875q1.0 0 1.75 0.46875q0.75 0.453125 1.15625 1.3125q0.421875 0.84375 0.421875 1.984375q0 1.125 -0.421875 1.96875q-0.40625 0.84375 -1.15625 1.3125q-0.75 0.46875 -1.75 0.46875zm0 -1.046875q0.734375 0 1.203125 -0.375q0.484375 -0.375 0.703125 -0.984375q0.234375 -0.625 0.234375 -1.34375q0 -0.71875 -0.234375 -1.34375q-0.21875 -0.625 -0.703125 -1.0q-0.46875 -0.375 -1.203125 -0.375q-0.71875 0 -1.1875 0.375q-0.46875 0.375 -0.703125 1.0q-0.21875 0.609375 -0.21875 1.34375q0 0.71875 0.21875 1.34375q0.234375 0.609375 0.703125 0.984375q0.46875 0.375 1.1875 0.375zm6.422657 0.890625l-2.2031288 -7.28125l1.25 0l0.8750038 3.1875q0.1875 0.640625 0.390625 1.46875q0.21875 0.828125 0.421875 1.859375l-0.203125 0q0.1875 -0.984375 0.390625 -1.8125q0.203125 -0.828125 0.390625 -1.515625l0.875 -3.1875l1.25 0l0.859375 3.1875q0.171875 0.671875 0.375 1.5q0.203125 0.8125 0.390625 1.828125l-0.203125 0q0.203125 -1.0 0.40625 -1.828125q0.21875 -0.828125 0.40625 -1.5l0.875 -3.1875l1.25 0l-2.203125 7.28125l-1.171875 0l-0.9375 -3.296875q-0.140625 -0.5 -0.28125 -1.015625q-0.140625 -0.515625 -0.28125 -1.0625q-0.125 -0.546875 -0.25 -1.125l0.25 0q-0.125 0.5625 -0.265625 1.125q-0.125 0.546875 -0.265625 1.078125q-0.140625 0.515625 -0.28125 1.0l-0.9375 3.296875l-1.171875 0zm11.750946 0.15625q-0.75 0 -1.328125 -0.21875q-0.578125 -0.21875 -0.96875 -0.640625q-0.375 -0.4375 -0.5 -1.0625l1.109375 -0.265625q0.15625 0.59375 0.59375 0.875q0.4375 0.28125 1.078125 0.28125q0.765625 0 1.21875 -0.3125q0.453125 -0.328125 0.453125 -0.78125q0 -0.375 -0.265625 -0.625q-0.265625 -0.25 -0.796875 -0.375l-1.21875 -0.296875q-0.984375 -0.234375 -1.46875 -0.71875q-0.484375 -0.5 -0.484375 -1.265625q0 -0.625 0.34375 -1.09375q0.359375 -0.484375 0.96875 -0.75q0.609375 -0.265625 1.390625 -0.265625q0.734375 0 1.265625 0.21875q0.53125 0.21875 0.859375 0.625q0.328125 0.390625 0.484375 0.90625l-1.0625 0.265625q-0.140625 -0.390625 -0.5 -0.703125q-0.34375 -0.328125 -1.046875 -0.328125q-0.65625 0 -1.09375 0.3125q-0.421875 0.296875 -0.421875 0.75q0 0.40625 0.28125 0.65625q0.296875 0.234375 0.9375 0.375l1.109375 0.265625q0.984375 0.234375 1.453125 0.734375q0.484375 0.484375 0.484375 1.234375q0 0.640625 -0.359375 1.140625q-0.359375 0.484375 -1.015625 0.78125q-0.640625 0.28125 -1.5 0.28125z" fill-rule="nonzero"/><path fill="#f1c232" d="m115.67191 76.75861l0 0c0 -2.3019562 1.8661118 -4.1680603 4.168068 -4.1680603l123.852844 0c1.1054382 0 2.1656036 0.4391327 2.9472656 1.2207947c0.781662 0.781662 1.2207947 1.8418274 1.2207947 2.9472656l0 16.671753c0 2.3019562 -1.8661041 4.1680603 -4.1680603 4.1680603l-123.852844 0l0 0c-2.3019562 0 -4.168068 -1.8661041 -4.168068 -4.1680603z" fill-rule="evenodd"/><path stroke="#000000" stroke-width="1.0" stroke-linejoin="round" stroke-linecap="butt" d="m115.67191 76.75861l0 0c0 -2.3019562 1.8661118 -4.1680603 4.168068 -4.1680603l123.852844 0c1.1054382 0 2.1656036 0.4391327 2.9472656 1.2207947c0.781662 0.781662 1.2207947 1.8418274 1.2207947 2.9472656l0 16.671753c0 2.3019562 -1.8661041 4.1680603 -4.1680603 4.1680603l-123.852844 0l0 0c-2.3019562 0 -4.168068 -1.8661041 -4.168068 -4.1680603z" fill-rule="evenodd"/><path fill="#f1c232" d="m267.11417 76.75861l0 0c0 -2.3019562 1.8661194 -4.1680603 4.1680603 -4.1680603l123.852875 0c1.1054382 0 2.1655884 0.4391327 2.9472656 1.2207947c0.7816467 0.781662 1.2207947 1.8418274 1.2207947 2.9472656l0 16.671753c0 2.3019562 -1.8661194 4.1680603 -4.1680603 4.1680603l-123.852875 0l0 0c-2.301941 0 -4.1680603 -1.8661041 -4.1680603 -4.1680603z" fill-rule="evenodd"/><path stroke="#000000" stroke-width="1.0" stroke-linejoin="round" stroke-linecap="butt" d="m267.11417 76.75861l0 0c0 -2.3019562 1.8661194 -4.1680603 4.1680603 -4.1680603l123.852875 0c1.1054382 0 2.1655884 0.4391327 2.9472656 1.2207947c0.7816467 0.781662 1.2207947 1.8418274 1.2207947 2.9472656l0 16.671753c0 2.3019562 -1.8661194 4.1680603 -4.1680603 4.1680603l-123.852875 0l0 0c-2.301941 0 -4.1680603 -1.8661041 -4.1680603 -4.1680603z" fill-rule="evenodd"/><path fill="#f1c232" d="m418.55643 76.75861l0 0c0 -2.3019562 1.8661194 -4.1680603 4.1680603 -4.1680603l123.852844 0c1.1054688 0 2.1655884 0.4391327 2.9472656 1.2207947c0.78167725 0.781662 1.2208252 1.8418274 1.2208252 2.9472656l0 16.671753c0 2.3019562 -1.8661499 4.1680603 -4.168091 4.1680603l-123.852844 0l0 0c-2.301941 0 -4.1680603 -1.8661041 -4.1680603 -4.1680603z" fill-rule="evenodd"/><path stroke="#000000" stroke-width="1.0" stroke-linejoin="round" stroke-linecap="butt" d="m418.55643 76.75861l0 0c0 -2.3019562 1.8661194 -4.1680603 4.1680603 -4.1680603l123.852844 0c1.1054688 0 2.1655884 0.4391327 2.9472656 1.2207947c0.78167725 0.781662 1.2208252 1.8418274 1.2208252 2.9472656l0 16.671753c0 2.3019562 -1.8661499 4.1680603 -4.168091 4.1680603l-123.852844 0l0 0c-2.301941 0 -4.1680603 -1.8661041 -4.1680603 -4.1680603z" fill-rule="evenodd"/><path fill="#000000" fill-opacity="0.0" d="m7.0813646 125.38845l88.0 0l0 82.362206l-88.0 0z" fill-rule="evenodd"/><path fill="#000000" d="m34.140438 163.54143q-1.046875 0 -1.828125 -0.328125q-0.7656231 -0.34375 -1.2031231 -0.953125q-0.4375 -0.609375 -0.5 -1.421875l1.28125 0q0.046875 0.546875 0.3593731 0.90625q0.328125 0.34375 0.8125 0.515625q0.5 0.171875 1.078125 0.171875q0.65625 0 1.171875 -0.203125q0.53125 -0.21875 0.828125 -0.609375q0.3125 -0.390625 0.3125 -0.90625q0 -0.46875 -0.265625 -0.765625q-0.265625 -0.296875 -0.703125 -0.484375q-0.4375 -0.1875 -0.953125 -0.328125l-1.171875 -0.328125q-1.171875 -0.34375 -1.8281231 -0.953125q-0.640625 -0.625 -0.640625 -1.578125q0 -0.828125 0.4375 -1.4375q0.4375 -0.625 1.1874981 -0.953125q0.765625 -0.34375 1.703125 -0.34375q0.953125 0 1.6875 0.34375q0.734375 0.328125 1.15625 0.921875q0.4375 0.578125 0.46875 1.3125l-1.21875 0q-0.078125 -0.703125 -0.671875 -1.09375q-0.59375 -0.390625 -1.453125 -0.390625q-0.625 0 -1.109375 0.203125q-0.46875 0.203125 -0.734375 0.5625q-0.25 0.359375 -0.25 0.8125q0 0.5 0.3125 0.8125q0.3125 0.3125 0.75 0.484375q0.4375 0.171875 0.78125 0.265625l0.96875 0.265625q0.390625 0.109375 0.859375 0.296875q0.484375 0.171875 0.90625 0.484375q0.4375 0.296875 0.703125 0.765625q0.28125 0.46875 0.28125 1.140625q0 0.796875 -0.421875 1.4375q-0.40625 0.625 -1.203125 1.0q-0.78125 0.375 -1.890625 0.375zm6.473221 -9.875l0 9.703125l-1.171875 0l0 -9.703125l1.171875 0zm2.0560303 9.703125l0 -7.28125l1.171875 0l0 7.28125l-1.171875 0zm0.59375 -8.46875q-0.328125 0 -0.578125 -0.21875q-0.234375 -0.234375 -0.234375 -0.546875q0 -0.328125 0.234375 -0.546875q0.25 -0.234375 0.578125 -0.234375q0.34375 0 0.578125 0.234375q0.234375 0.21875 0.234375 0.546875q0 0.3125 -0.234375 0.546875q-0.234375 0.21875 -0.578125 0.21875zm5.3529053 8.625q-0.90625 0 -1.609375 -0.453125q-0.6875 -0.46875 -1.078125 -1.3125q-0.390625 -0.84375 -0.390625 -2.015625q0 -1.140625 0.390625 -1.984375q0.40625 -0.84375 1.09375 -1.296875q0.703125 -0.453125 1.609375 -0.453125q0.703125 0 1.109375 0.234375q0.421875 0.234375 0.640625 0.53125q0.234375 0.28125 0.359375 0.484375l0.09375 0l0 -3.59375l1.15625 0l0 9.703125l-1.125 0l0 -1.125l-0.125 0q-0.125 0.203125 -0.359375 0.515625q-0.21875 0.296875 -0.640625 0.53125q-0.421875 0.234375 -1.125 0.234375zm0.1875 -1.046875q0.65625 0 1.109375 -0.34375q0.453125 -0.359375 0.6875 -0.96875q0.234375 -0.625 0.234375 -1.421875q0 -0.8125 -0.234375 -1.40625q-0.21875 -0.609375 -0.6875 -0.9375q-0.453125 -0.34375 -1.109375 -0.34375q-0.703125 0 -1.15625 0.359375q-0.453125 0.34375 -0.6875 0.953125q-0.21875 0.609375 -0.21875 1.375q0 0.75 0.21875 1.375q0.234375 0.625 0.6875 1.0q0.46875 0.359375 1.15625 0.359375zm5.2546234 0.890625l0 -7.28125l1.171875 0l0 7.28125l-1.171875 0zm0.59375 -8.46875q-0.328125 0 -0.578125 -0.21875q-0.234375 -0.234375 -0.234375 -0.546875q0 -0.328125 0.234375 -0.546875q0.25 -0.234375 0.578125 -0.234375q0.34375 0 0.578125 0.234375q0.234375 0.21875 0.234375 0.546875q0 0.3125 -0.234375 0.546875q-0.234375 0.21875 -0.578125 0.21875zm3.8060303 4.109375l0 4.359375l-1.171875 0l0 -7.28125l1.125 0l0 1.765625l-0.15625 0q0.328125 -1.0 0.9375 -1.421875q0.625 -0.421875 1.453125 -0.421875q0.734375 0 1.28125 0.296875q0.5625 0.296875 0.859375 0.90625q0.3125 0.609375 0.3125 1.53125l0 4.625l-1.171875 0l0 -4.515625q0 -0.84375 -0.4375 -1.3125q-0.4375 -0.484375 -1.203125 -0.484375q-0.515625 0 -0.9375 0.234375q-0.40625 0.21875 -0.65625 0.65625q-0.234375 0.4375 -0.234375 1.0625zm9.640156 7.234375q-0.796875 0 -1.390625 -0.203125q-0.59375 -0.203125 -0.984375 -0.546875q-0.390625 -0.328125 -0.609375 -0.734375l0.953125 -0.609375q0.15625 0.203125 0.375 0.453125q0.234375 0.265625 0.625 0.4375q0.40625 0.1875 1.03125 0.1875q0.875 0 1.4375 -0.421875q0.5625 -0.421875 0.5625 -1.3125l0 -1.453125l-0.109375 0q-0.125 0.203125 -0.34375 0.5q-0.21875 0.28125 -0.640625 0.5q-0.421875 0.21875 -1.125 0.21875q-0.875 0 -1.578125 -0.40625q-0.6875 -0.421875 -1.09375 -1.21875q-0.40625 -0.796875 -0.40625 -1.9375q0 -1.125 0.390625 -1.953125q0.40625 -0.828125 1.109375 -1.28125q0.703125 -0.453125 1.609375 -0.453125q0.703125 0 1.109375 0.234375q0.421875 0.21875 0.640625 0.515625q0.234375 0.296875 0.359375 0.5l0.109375 0l0 -1.171875l1.140625 0l0 7.46875q0 0.9375 -0.421875 1.53125q-0.421875 0.59375 -1.140625 0.875q-0.71875 0.28125 -1.609375 0.28125zm-0.03125 -4.03125q0.671875 0 1.125 -0.296875q0.453125 -0.3125 0.6875 -0.875q0.234375 -0.578125 0.234375 -1.375q0 -0.765625 -0.234375 -1.359375q-0.21875 -0.59375 -0.6875 -0.921875q-0.453125 -0.328125 -1.125 -0.328125q-0.6875 0 -1.15625 0.359375q-0.453125 0.34375 -0.6875 0.9375q-0.21875 0.59375 -0.21875 1.3125q0 0.75 0.234375 1.328125q0.234375 0.578125 0.6875 0.90625q0.46875 0.3125 1.140625 0.3125z" fill-rule="nonzero"/><path fill="#000000" d="m25.021147 179.36955l-2.640625 -9.703125l1.25 0l1.546875 5.953125q0.125 0.46875 0.234375 0.96875q0.109375 0.484375 0.203125 1.0q0.109375 0.5 0.203125 1.03125l-0.15625 0q0.109375 -0.53125 0.203125 -1.03125q0.109375 -0.515625 0.21875 -1.0q0.125 -0.5 0.25 -0.96875l1.5625 -5.953125l1.40625 0l1.5625 5.953125q0.125 0.46875 0.234375 0.96875q0.125 0.484375 0.234375 1.0q0.109375 0.5 0.203125 1.03125l-0.171875 0q0.109375 -0.53125 0.203125 -1.03125q0.109375 -0.515625 0.21875 -1.0q0.125 -0.5 0.2343731 -0.96875l1.53125 -5.953125l1.28125 0l-2.65625 9.703125l-1.4374981 0l-1.671875 -6.140625q-0.15625 -0.59375 -0.3125 -1.296875q-0.140625 -0.71875 -0.28125 -1.640625l0.25 0q-0.140625 0.875 -0.28125 1.5625q-0.125 0.6875 -0.328125 1.375l-1.65625 6.140625l-1.4375 0zm11.179762 0l0 -7.28125l1.171875 0l0 7.28125l-1.171875 0zm0.59375 -8.46875q-0.328125 0 -0.578125 -0.21875q-0.234375 -0.234375 -0.234375 -0.546875q0 -0.328125 0.234375 -0.546875q0.25 -0.234375 0.578125 -0.234375q0.34375 0 0.578125 0.234375q0.234375 0.21875 0.234375 0.546875q0 0.3125 -0.234375 0.546875q-0.234375 0.21875 -0.578125 0.21875zm3.8060303 4.109375l0 4.359375l-1.171875 0l0 -7.28125l1.125 0l0 1.765625l-0.15625 0q0.328125 -1.0 0.9375 -1.421875q0.625 -0.421875 1.453125 -0.421875q0.734375 0 1.28125 0.296875q0.5625 0.296875 0.859375 0.90625q0.3125 0.609375 0.3125 1.53125l0 4.625l-1.171875 0l0 -4.515625q0 -0.84375 -0.4375 -1.3125q-0.4375 -0.484375 -1.203125 -0.484375q-0.515625 0 -0.9375 0.234375q-0.40625 0.21875 -0.65625 0.65625q-0.234375 0.4375 -0.234375 1.0625zm9.421402 4.515625q-0.90625 0 -1.609375 -0.453125q-0.6875 -0.46875 -1.078125 -1.3125q-0.390625 -0.84375 -0.390625 -2.015625q0 -1.140625 0.390625 -1.984375q0.40625 -0.84375 1.09375 -1.296875q0.703125 -0.453125 1.609375 -0.453125q0.703125 0 1.109375 0.234375q0.421875 0.234375 0.640625 0.53125q0.234375 0.28125 0.359375 0.484375l0.09375 0l0 -3.59375l1.15625 0l0 9.703125l-1.125 0l0 -1.125l-0.125 0q-0.125 0.203125 -0.359375 0.515625q-0.21875 0.296875 -0.640625 0.53125q-0.421875 0.234375 -1.125 0.234375zm0.1875 -1.046875q0.65625 0 1.109375 -0.34375q0.453125 -0.359375 0.6875 -0.96875q0.234375 -0.625 0.234375 -1.421875q0 -0.8125 -0.234375 -1.40625q-0.21875 -0.609375 -0.6875 -0.9375q-0.453125 -0.34375 -1.109375 -0.34375q-0.703125 0 -1.15625 0.359375q-0.453125 0.34375 -0.6875 0.953125q-0.21875 0.609375 -0.21875 1.375q0 0.75 0.21875 1.375q0.234375 0.625 0.6875 1.0q0.46875 0.359375 1.15625 0.359375zm8.207748 1.046875q-0.984375 0 -1.734375 -0.46875q-0.734375 -0.46875 -1.15625 -1.3125q-0.421875 -0.84375 -0.421875 -1.96875q0 -1.140625 0.421875 -1.984375q0.421875 -0.859375 1.15625 -1.3125q0.75 -0.46875 1.734375 -0.46875q1.0 0 1.75 0.46875q0.75 0.453125 1.15625 1.3125q0.421875 0.84375 0.421875 1.984375q0 1.125 -0.421875 1.96875q-0.40625 0.84375 -1.15625 1.3125q-0.75 0.46875 -1.75 0.46875zm0 -1.046875q0.734375 0 1.203125 -0.375q0.484375 -0.375 0.703125 -0.984375q0.234375 -0.625 0.234375 -1.34375q0 -0.71875 -0.234375 -1.34375q-0.21875 -0.625 -0.703125 -1.0q-0.46875 -0.375 -1.203125 -0.375q-0.71875 0 -1.1875 0.375q-0.46875 0.375 -0.703125 1.0q-0.21875 0.609375 -0.21875 1.34375q0 0.71875 0.21875 1.34375q0.234375 0.609375 0.703125 0.984375q0.46875 0.375 1.1875 0.375zm6.422657 0.890625l-2.2031288 -7.28125l1.25 0l0.8750038 3.1875q0.1875 0.640625 0.390625 1.46875q0.21875 0.828125 0.421875 1.859375l-0.203125 0q0.1875 -0.984375 0.390625 -1.8125q0.203125 -0.828125 0.390625 -1.515625l0.875 -3.1875l1.25 0l0.859375 3.1875q0.171875 0.671875 0.375 1.5q0.203125 0.8125 0.390625 1.828125l-0.203125 0q0.203125 -1.0 0.40625 -1.828125q0.21875 -0.828125 0.40625 -1.5l0.875 -3.1875l1.25 0l-2.203125 7.28125l-1.171875 0l-0.9375 -3.296875q-0.140625 -0.5 -0.28125 -1.015625q-0.140625 -0.515625 -0.28125 -1.0625q-0.125 -0.546875 -0.25 -1.125l0.25 0q-0.125 0.5625 -0.265625 1.125q-0.125 0.546875 -0.265625 1.078125q-0.140625 0.515625 -0.28125 1.0l-0.9375 3.296875l-1.171875 0zm11.750946 0.15625q-0.75 0 -1.328125 -0.21875q-0.578125 -0.21875 -0.96875 -0.640625q-0.375 -0.4375 -0.5 -1.0625l1.109375 -0.265625q0.15625 0.59375 0.59375 0.875q0.4375 0.28125 1.078125 0.28125q0.765625 0 1.21875 -0.3125q0.453125 -0.328125 0.453125 -0.78125q0 -0.375 -0.265625 -0.625q-0.265625 -0.25 -0.796875 -0.375l-1.21875 -0.296875q-0.984375 -0.234375 -1.46875 -0.71875q-0.484375 -0.5 -0.484375 -1.265625q0 -0.625 0.34375 -1.09375q0.359375 -0.484375 0.96875 -0.75q0.609375 -0.265625 1.390625 -0.265625q0.734375 0 1.265625 0.21875q0.53125 0.21875 0.859375 0.625q0.328125 0.390625 0.484375 0.90625l-1.0625 0.265625q-0.140625 -0.390625 -0.5 -0.703125q-0.34375 -0.328125 -1.046875 -0.328125q-0.65625 0 -1.09375 0.3125q-0.421875 0.296875 -0.421875 0.75q0 0.40625 0.28125 0.65625q0.296875 0.234375 0.9375 0.375l1.109375 0.265625q0.984375 0.234375 1.453125 0.734375q0.484375 0.484375 0.484375 1.234375q0 0.640625 -0.359375 1.140625q-0.359375 0.484375 -1.015625 0.78125q-0.640625 0.28125 -1.5 0.28125z" fill-rule="nonzero"/><path fill="#93c47d" d="m115.67191 141.14706l0 0c0 -2.3019562 1.8661118 -4.1680603 4.168068 -4.1680603l123.852844 0c1.1054382 0 2.1656036 0.4391327 2.9472656 1.2207947c0.781662 0.781662 1.2207947 1.8418274 1.2207947 2.9472656l0 16.671753c0 2.3019562 -1.8661041 4.1680603 -4.1680603 4.1680603l-123.852844 0l0 0c-2.3019562 0 -4.168068 -1.8661041 -4.168068 -4.1680603z" fill-rule="evenodd"/><path stroke="#000000" stroke-width="1.0" stroke-linejoin="round" stroke-linecap="butt" d="m115.67191 141.14706l0 0c0 -2.3019562 1.8661118 -4.1680603 4.168068 -4.1680603l123.852844 0c1.1054382 0 2.1656036 0.4391327 2.9472656 1.2207947c0.781662 0.781662 1.2207947 1.8418274 1.2207947 2.9472656l0 16.671753c0 2.3019562 -1.8661041 4.1680603 -4.1680603 4.1680603l-123.852844 0l0 0c-2.3019562 0 -4.168068 -1.8661041 -4.168068 -4.1680603z" fill-rule="evenodd"/><path fill="#93c47d" d="m220.0 177.80324l0 0c0 -2.3019562 1.8661041 -4.1680603 4.1680603 -4.1680603l123.852844 0c1.1054382 0 2.165619 0.4391327 2.9472656 1.2207947c0.78167725 0.781662 1.2207947 1.8418274 1.2207947 2.9472656l0 16.671738c0 2.3019714 -1.8660889 4.1680756 -4.1680603 4.1680756l-123.852844 0l0 0c-2.3019562 0 -4.1680603 -1.8661041 -4.1680603 -4.1680756z" fill-rule="evenodd"/><path stroke="#000000" stroke-width="1.0" stroke-linejoin="round" stroke-linecap="butt" d="m220.0 177.80324l0 0c0 -2.3019562 1.8661041 -4.1680603 4.1680603 -4.1680603l123.852844 0c1.1054382 0 2.165619 0.4391327 2.9472656 1.2207947c0.78167725 0.781662 1.2207947 1.8418274 1.2207947 2.9472656l0 16.671738c0 2.3019714 -1.8660889 4.1680756 -4.1680603 4.1680756l-123.852844 0l0 0c-2.3019562 0 -4.1680603 -1.8661041 -4.1680603 -4.1680756z" fill-rule="evenodd"/><path fill="#93c47d" d="m324.3281 141.14706l0 0c0 -2.3019562 1.8660889 -4.1680603 4.1680603 -4.1680603l123.852844 0c1.1054382 0 2.1655884 0.4391327 2.9472656 1.2207947c0.7816467 0.781662 1.2207947 1.8418274 1.2207947 2.9472656l0 16.671753c0 2.3019562 -1.8660889 4.1680603 -4.1680603 4.1680603l-123.852844 0l0 0c-2.3019714 0 -4.1680603 -1.8661041 -4.1680603 -4.1680603z" fill-rule="evenodd"/><path stroke="#000000" stroke-width="1.0" stroke-linejoin="round" stroke-linecap="butt" d="m324.3281 141.14706l0 0c0 -2.3019562 1.8660889 -4.1680603 4.1680603 -4.1680603l123.852844 0c1.1054382 0 2.1655884 0.4391327 2.9472656 1.2207947c0.7816467 0.781662 1.2207947 1.8418274 1.2207947 2.9472656l0 16.671753c0 2.3019562 -1.8660889 4.1680603 -4.1680603 4.1680603l-123.852844 0l0 0c-2.3019714 0 -4.1680603 -1.8661041 -4.1680603 -4.1680603z" fill-rule="evenodd"/><path fill="#93c47d" d="m428.65616 177.80324l0 0c0 -2.3019562 1.8661194 -4.1680603 4.1680603 -4.1680603l123.852844 0c1.1054688 0 2.1656494 0.4391327 2.9472656 1.2207947c0.78167725 0.781662 1.2208252 1.8418274 1.2208252 2.9472656l0 16.671738c0 2.3019714 -1.8660889 4.1680756 -4.168091 4.1680756l-123.852844 0l0 0c-2.301941 0 -4.1680603 -1.8661041 -4.1680603 -4.1680756z" fill-rule="evenodd"/><path stroke="#000000" stroke-width="1.0" stroke-linejoin="round" stroke-linecap="butt" d="m428.65616 177.80324l0 0c0 -2.3019562 1.8661194 -4.1680603 4.1680603 -4.1680603l123.852844 0c1.1054688 0 2.1656494 0.4391327 2.9472656 1.2207947c0.78167725 0.781662 1.2208252 1.8418274 1.2208252 2.9472656l0 16.671738c0 2.3019714 -1.8660889 4.1680756 -4.168091 4.1680756l-123.852844 0l0 0c-2.301941 0 -4.1680603 -1.8661041 -4.1680603 -4.1680756z" fill-rule="evenodd"/></g></svg>